<?xml version="1.0" standalone="no"?>
<!DOCTYPE svg PUBLIC "-//W3C//DTD SVG 20010904//EN"
 "http://www.w3.org/TR/2001/REC-SVG-20010904/DTD/svg10.dtd">
<svg version="1.0" xmlns="http://www.w3.org/2000/svg"
 width="1118.000000pt" height="1118.000000pt" viewBox="0 0 1118.000000 1118.000000"
 preserveAspectRatio="xMidYMid meet">
<metadata>
Created by potrace 1.11, written by Peter Selinger 2001-2013
</metadata>
<g transform="translate(0.000000,1118.000000) scale(0.100000,-0.100000)"
fill="#000000" stroke="none">
<path d="M7980 9397 c-3 -2 -71 -7 -152 -11 -80 -4 -157 -9 -170 -11 -13 -2
-57 -6 -98 -10 -41 -4 -91 -8 -110 -11 -69 -8 -206 -25 -230 -29 -14 -2 -45
-6 -70 -9 -143 -17 -496 -80 -770 -138 -80 -16 -153 -32 -163 -34 -10 -2 -26
-5 -35 -8 -9 -3 -28 -7 -42 -10 -14 -2 -56 -12 -95 -21 -38 -9 -77 -18 -85
-20 -93 -19 -498 -125 -785 -206 -134 -37 -145 -39 -255 -34 -63 2 -127 7
-143 10 -15 2 -53 9 -85 15 -31 5 -129 30 -217 55 -190 54 -446 121 -495 129
-253 43 -478 50 -635 20 -11 -2 -40 -7 -65 -10 -77 -11 -279 -70 -400 -117
-152 -60 -200 -81 -200 -88 0 -3 30 -25 68 -49 129 -82 240 -186 309 -290 145
-216 145 -485 -2 -850 -82 -205 -156 -349 -535 -1040 -286 -520 -376 -698
-530 -1045 -175 -396 -361 -920 -465 -1310 -14 -55 -33 -125 -42 -155 -8 -30
-32 -131 -54 -225 -22 -93 -45 -175 -52 -181 -6 -6 -68 -58 -137 -115 -111
-92 -397 -369 -506 -489 -250 -278 -498 -627 -600 -845 -113 -242 -149 -496
-70 -495 36 1 63 22 117 95 94 126 122 159 224 260 118 119 238 207 390 285
98 51 126 60 255 86 116 23 173 28 285 29 163 0 198 -11 243 -79 24 -35 33
-41 68 -44 39 -3 44 0 106 66 79 84 143 172 197 273 82 153 116 296 99 420 -9
70 -32 119 -82 174 -41 45 -42 62 -8 138 37 84 140 220 282 372 41 45 122 132
180 195 137 150 420 434 540 540 52 47 97 87 100 90 3 3 34 30 70 61 373 319
814 632 1280 910 85 51 175 104 200 119 166 101 503 281 855 455 267 132 424
202 705 315 58 23 139 56 180 72 41 17 192 75 335 129 143 54 272 108 287 119
15 11 29 16 32 12 7 -12 -13 -91 -32 -126 -61 -111 -327 -363 -524 -497 -62
-42 -78 -68 -78 -124 0 -28 6 -37 37 -56 31 -19 53 -24 128 -26 108 -2 184 13
330 65 307 110 576 283 830 537 227 226 433 497 665 878 l54 88 105 -6 c59 -3
117 -8 131 -10 14 -2 66 -7 115 -10 50 -4 102 -8 117 -10 14 -2 68 -6 120 -10
51 -4 107 -9 123 -11 17 -2 80 -6 140 -9 61 -4 116 -8 122 -10 38 -12 477 -22
713 -15 330 8 791 99 969 189 97 50 122 178 48 251 -39 40 -156 117 -297 195
-249 139 -354 228 -461 390 -195 295 -419 479 -781 639 -105 46 -330 116 -453
141 -107 21 -254 45 -335 54 -52 6 -115 13 -140 16 -56 8 -663 18 -670 12z"/>
</g>
</svg>
