<?xml version="1.0" encoding="UTF-8" standalone="no"?>
<!-- Created with Inkscape (http://www.inkscape.org/) -->

<svg
   xmlns:dc="http://purl.org/dc/elements/1.1/"
   xmlns:cc="http://creativecommons.org/ns#"
   xmlns:rdf="http://www.w3.org/1999/02/22-rdf-syntax-ns#"
   xmlns:svg="http://www.w3.org/2000/svg"
   xmlns="http://www.w3.org/2000/svg"
   xmlns:sodipodi="http://sodipodi.sourceforge.net/DTD/sodipodi-0.dtd"
   xmlns:inkscape="http://www.inkscape.org/namespaces/inkscape"
   width="25"
   height="25"
   viewBox="0 0 6.6145832 6.6145835"
   version="1.1"
   id="svg8"
   inkscape:version="0.92.3 (2405546, 2018-03-11)"
   sodipodi:docname="logout.svg">
  <title
     id="title5958">Log out</title>
  <defs
     id="defs2">
    <marker
       inkscape:stockid="Arrow2Lstart"
       orient="auto"
       refY="0"
       refX="0"
       id="marker1510"
       style="overflow:visible"
       inkscape:isstock="true">
      <path
         id="path1508"
         style="fill:#000000;fill-opacity:1;fill-rule:evenodd;stroke:#000000;stroke-width:0.625;stroke-linejoin:round;stroke-opacity:1"
         d="M 8.7185878,4.0337352 -2.2072895,0.01601326 8.7185884,-4.0017078 c -1.7454984,2.3720609 -1.7354408,5.6174519 -6e-7,8.035443 z"
         transform="matrix(1.1,0,0,1.1,1.1,0)"
         inkscape:connector-curvature="0" />
    </marker>
    <marker
       inkscape:stockid="Arrow1Lstart"
       orient="auto"
       refY="0"
       refX="0"
       id="marker1464"
       style="overflow:visible"
       inkscape:isstock="true">
      <path
         id="path1462"
         d="M 0,0 5,-5 -12.5,0 5,5 Z"
         style="fill:#000000;fill-opacity:1;fill-rule:evenodd;stroke:#000000;stroke-width:1.00000003pt;stroke-opacity:1"
         transform="matrix(0.8,0,0,0.8,10,0)"
         inkscape:connector-curvature="0" />
    </marker>
    <marker
       inkscape:stockid="Arrow1Lstart"
       orient="auto"
       refY="0"
       refX="0"
       id="Arrow1Lstart"
       style="overflow:visible"
       inkscape:isstock="true">
      <path
         id="path830"
         d="M 0,0 5,-5 -12.5,0 5,5 Z"
         style="fill:#000000;fill-opacity:1;fill-rule:evenodd;stroke:#000000;stroke-width:1.00000003pt;stroke-opacity:1"
         transform="matrix(0.8,0,0,0.8,10,0)"
         inkscape:connector-curvature="0" />
    </marker>
    <marker
       inkscape:stockid="Arrow2Lstart"
       orient="auto"
       refY="0"
       refX="0"
       id="Arrow2Lstart"
       style="overflow:visible"
       inkscape:isstock="true">
      <path
         id="path848"
         style="fill:#000000;fill-opacity:1;fill-rule:evenodd;stroke:#000000;stroke-width:0.625;stroke-linejoin:round;stroke-opacity:1"
         d="M 8.7185878,4.0337352 -2.2072895,0.01601326 8.7185884,-4.0017078 c -1.7454984,2.3720609 -1.7354408,5.6174519 -6e-7,8.035443 z"
         transform="matrix(1.1,0,0,1.1,1.1,0)"
         inkscape:connector-curvature="0" />
    </marker>
    <marker
       inkscape:stockid="Arrow1Lend"
       orient="auto"
       refY="0"
       refX="0"
       id="Arrow1Lend"
       style="overflow:visible"
       inkscape:isstock="true">
      <path
         id="path833"
         d="M 0,0 5,-5 -12.5,0 5,5 Z"
         style="fill:#000000;fill-opacity:1;fill-rule:evenodd;stroke:#000000;stroke-width:1.00000003pt;stroke-opacity:1"
         transform="matrix(-0.8,0,0,-0.8,-10,0)"
         inkscape:connector-curvature="0" />
    </marker>
    <marker
       inkscape:stockid="Arrow2Lend"
       orient="auto"
       refY="0"
       refX="0"
       id="Arrow2Lend"
       style="overflow:visible"
       inkscape:isstock="true">
      <path
         id="path851"
         style="fill:#000000;fill-opacity:1;fill-rule:evenodd;stroke:#000000;stroke-width:0.625;stroke-linejoin:round;stroke-opacity:1"
         d="M 8.7185878,4.0337352 -2.2072895,0.01601326 8.7185884,-4.0017078 c -1.7454984,2.3720609 -1.7354408,5.6174519 -6e-7,8.035443 z"
         transform="matrix(-1.1,0,0,-1.1,-1.1,0)"
         inkscape:connector-curvature="0" />
    </marker>
  </defs>
  <sodipodi:namedview
     id="base"
     pagecolor="#ffffff"
     bordercolor="#666666"
     borderopacity="1.0"
     inkscape:pageopacity="0.0"
     inkscape:pageshadow="2"
     inkscape:zoom="31.678384"
     inkscape:cx="-4.1893602"
     inkscape:cy="10.087713"
     inkscape:document-units="px"
     inkscape:current-layer="layer1"
     showgrid="false"
     units="px"
     inkscape:window-width="2560"
     inkscape:window-height="1537"
     inkscape:window-x="1912"
     inkscape:window-y="-8"
     inkscape:window-maximized="1" />
  <metadata
     id="metadata5">
    <rdf:RDF>
      <cc:Work
         rdf:about="">
        <dc:format>image/svg+xml</dc:format>
        <dc:type
           rdf:resource="http://purl.org/dc/dcmitype/StillImage" />
        <dc:title>Log out</dc:title>
        <dc:date>2019-01-24</dc:date>
        <dc:creator>
          <cc:Agent>
            <dc:title>Stig Magnus Baugstø</dc:title>
          </cc:Agent>
        </dc:creator>
        <dc:rights>
          <cc:Agent>
            <dc:title>Dolphin Interconnect Solutions AS</dc:title>
          </cc:Agent>
        </dc:rights>
        <dc:publisher>
          <cc:Agent>
            <dc:title>Dolphin Interconnect Solutions AS</dc:title>
          </cc:Agent>
        </dc:publisher>
        <dc:language>English</dc:language>
      </cc:Work>
    </rdf:RDF>
  </metadata>
  <g
     inkscape:label="Layer 1"
     inkscape:groupmode="layer"
     id="layer1"
     transform="translate(0,-290.3854)">
    <path
       style="opacity:1;fill:none;fill-opacity:0.5929648;stroke:#000000;stroke-width:0.4721956;stroke-linejoin:round;stroke-miterlimit:4;stroke-dasharray:none;stroke-opacity:1"
       d="m 4.2205752,292.88867 v 1.86765 H 0.24305006 v -4.13051 0 H 4.2205752 v 1.15374"
       id="path826"
       inkscape:connector-curvature="0"
       sodipodi:nodetypes="ccccccc" />
    <path
       style="fill:none;stroke:#000000;stroke-width:0.51339775;stroke-linecap:round;stroke-linejoin:round;stroke-miterlimit:4;stroke-dasharray:none;stroke-opacity:1;paint-order:stroke fill markers"
       d="M 6.3222798,292.33268 H 3.3986382"
       id="path1100"
       inkscape:connector-curvature="0"
       sodipodi:nodetypes="cc" />
    <path
       style="fill:none;stroke:#000000;stroke-width:0.4721956;stroke-linecap:round;stroke-linejoin:miter;stroke-miterlimit:4;stroke-dasharray:none;stroke-opacity:1;paint-order:stroke fill markers"
       d="m 6.3777988,292.33268 -1.35681,1.3568 v 0"
       id="path2144"
       inkscape:connector-curvature="0" />
    <path
       style="fill:none;stroke:#000000;stroke-width:0.4721956;stroke-linecap:round;stroke-linejoin:miter;stroke-miterlimit:4;stroke-dasharray:none;stroke-opacity:1;paint-order:stroke fill markers"
       d="m 6.3777988,292.33268 -1.356487,-1.35657 v 0"
       id="path2163"
       inkscape:connector-curvature="0" />
    <rect
       style="opacity:1;fill:#222222;fill-opacity:1;stroke:#222222;stroke-width:0.38133612;stroke-linecap:round;stroke-linejoin:round;stroke-miterlimit:4;stroke-dasharray:none;stroke-opacity:1;paint-order:stroke markers fill"
       id="rect5898"
       width="2.557543"
       height="4.1881652"
       x="0.24936602"
       y="290.63437"
       transform="matrix(0.98304536,0.18336251,0,1,0,0)" />
    <g
       aria-label="LOG OUT"
       transform="matrix(0.03676399,0,0,0.03902368,-2.2990477,270.42299)"
       style="font-style:normal;font-weight:normal;font-size:40px;line-height:1.25;font-family:sans-serif;letter-spacing:0px;word-spacing:0px;fill:#000000;fill-opacity:1;stroke:none"
       id="flowRoot5900">
      <path
         d="M 80.876953,680.44243 H 62.478516 V 651.3604 h 3.867187 v 25.64453 h 14.53125 z"
         style=""
         id="path5960" />
      <path
         d="m 106.0332,654.70024 q 1.77735,1.95313 2.71485,4.78516 0.95703,2.83203 0.95703,6.42578 0,3.59375 -0.97656,6.44531 -0.95704,2.83204 -2.69532,4.72657 -1.79687,1.97265 -4.25781,2.96875 -2.441406,0.99609 -5.585937,0.99609 -3.066406,0 -5.585937,-1.01562 -2.5,-1.01563 -4.257813,-2.94922 -1.757812,-1.9336 -2.714844,-4.7461 -0.9375,-2.8125 -0.9375,-6.42578 0,-3.55469 0.9375,-6.36719 0.9375,-2.83203 2.734375,-4.84375 1.71875,-1.91406 4.257813,-2.92968 2.558594,-1.01563 5.566406,-1.01563 3.125,0 5.605467,1.03516 2.5,1.01562 4.23828,2.91015 z m -0.35156,11.21094 q 0,-5.66406 -2.53906,-8.73047 -2.53906,-3.08593 -6.933596,-3.08593 -4.433593,0 -6.972656,3.08593 -2.519531,3.06641 -2.519531,8.73047 0,5.72266 2.578125,8.76953 2.578125,3.02735 6.914062,3.02735 4.335936,0 6.894536,-3.02735 2.57812,-3.04687 2.57812,-8.76953 z"
         style=""
         id="path5962" />
      <path
         d="m 140.0957,678.29399 q -2.38281,1.09375 -5.21484,1.91407 -2.8125,0.80078 -5.44922,0.80078 -3.39844,0 -6.23047,-0.9375 -2.83203,-0.9375 -4.82422,-2.8125 -2.01172,-1.89453 -3.10547,-4.72656 -1.09375,-2.85157 -1.09375,-6.66016 0,-6.97266 4.0625,-10.99609 4.08204,-4.04297 11.19141,-4.04297 2.48047,0 5.05859,0.60547 2.59766,0.58593 5.58594,2.01171 v 4.58985 h -0.35156 q -0.60547,-0.46875 -1.75781,-1.23047 -1.15235,-0.76172 -2.26563,-1.26953 -1.34765,-0.60547 -3.0664,-0.9961 -1.69922,-0.41015 -3.86719,-0.41015 -4.88281,0 -7.73438,3.14453 -2.83203,3.125 -2.83203,8.47656 0,5.64453 2.96875,8.78906 2.96875,3.125 8.08594,3.125 1.875,0 3.73047,-0.37109 1.875,-0.37109 3.28125,-0.95703 v -7.12891 h -7.79297 v -3.39843 h 11.62109 z"
         style=""
         id="path5964" />
      <path
         d="m 182.5957,654.70024 q 1.77735,1.95313 2.71485,4.78516 0.95703,2.83203 0.95703,6.42578 0,3.59375 -0.97656,6.44531 -0.95704,2.83204 -2.69532,4.72657 -1.79687,1.97265 -4.25781,2.96875 -2.44141,0.99609 -5.58594,0.99609 -3.0664,0 -5.58593,-1.01562 -2.5,-1.01563 -4.25782,-2.94922 -1.75781,-1.9336 -2.71484,-4.7461 -0.9375,-2.8125 -0.9375,-6.42578 0,-3.55469 0.9375,-6.36719 0.9375,-2.83203 2.73437,-4.84375 1.71875,-1.91406 4.25782,-2.92968 2.55859,-1.01563 5.5664,-1.01563 3.125,0 5.60547,1.03516 2.5,1.01562 4.23828,2.91015 z m -0.35156,11.21094 q 0,-5.66406 -2.53906,-8.73047 -2.53906,-3.08593 -6.9336,-3.08593 -4.43359,0 -6.97265,3.08593 -2.51953,3.06641 -2.51953,8.73047 0,5.72266 2.57812,8.76953 2.57813,3.02735 6.91406,3.02735 4.33594,0 6.89454,-3.02735 2.57812,-3.04687 2.57812,-8.76953 z"
         style=""
         id="path5966" />
      <path
         d="m 214.29492,668.76274 q 0,3.16407 -0.70312,5.52735 -0.6836,2.34375 -2.26563,3.90625 -1.5039,1.48437 -3.51562,2.16797 -2.01172,0.68359 -4.6875,0.68359 -2.73438,0 -4.76563,-0.72266 -2.03125,-0.72265 -3.41797,-2.1289 -1.58203,-1.60156 -2.28515,-3.86719 -0.6836,-2.26562 -0.6836,-5.56641 V 651.3604 h 3.86719 v 17.59766 q 0,2.36328 0.3125,3.73047 0.33203,1.36718 1.09375,2.48046 0.85938,1.26954 2.32422,1.91407 1.48437,0.64453 3.55469,0.64453 2.08984,0 3.55468,-0.625 1.46485,-0.64453 2.34375,-1.9336 0.76172,-1.11328 1.07422,-2.53906 0.33203,-1.44531 0.33203,-3.57422 V 651.3604 h 3.86719 z"
         style=""
         id="path5968" />
      <path
         d="m 242.43945,654.7979 h -10.39062 v 25.64453 h -3.86719 V 654.7979 h -10.39062 v -3.4375 h 24.64843 z"
         style=""
         id="path5970" />
    </g>
  </g>
</svg>
